# xmcd
#
# Track frame offsets: 
#        182
#        41942
#        61725
#        90045
#        108410
#        125507
#        162355
#        193862
#        231460
#        266167
#        292435
#
# Disc length: 4640 seconds
#
# Revision: 3
# Processed by: cddbd v1.5.2PL0 Copyright (c) Steve Scherf et al.
# Submitted via: ExactAudioCopy v0.99pb5
#
DISCID=a6121e0b
DTITLE=Roy Buchanan - Sweet Dreams - The Anthology (2)
DYEAR=1992
DGENRE=Rock
TTITLE0=Down By The River (Live)
TTITLE1=I'm A Ram (Live)
TTITLE2=I'm Evil (Live)
TTITLE3=Good God Have Mercy
TTITLE4=If Six Were Nine
TTITLE5=Green Onions
TTITLE6=Soul Dressing (Live)
TTITLE7=Hey Joe (Live)
TTITLE8=Fly...Night Bird
TTITLE9=Turn To Stone
TTITLE10=Dual Soliloquy
EXTD=YEAR: 1992
EXTT0=
EXTT1=
EXTT2=
EXTT3=
EXTT4=
EXTT5=
EXTT6=
EXTT7=
EXTT8=
EXTT9=
EXTT10=
PLAYORDER=
